<svg width="48" height="48" viewBox="0 0 48 48" fill="none" xmlns="http://www.w3.org/2000/svg">
<path d="M43.2 16.8H4.8C4.16348 16.8 3.55303 16.5471 3.10295 16.097C2.65286 15.6469 2.4 15.0365 2.4 14.4V9.59995C2.4 8.96343 2.65286 8.35298 3.10295 7.9029C3.55303 7.45281 4.16348 7.19995 4.8 7.19995H43.2C43.8365 7.19995 44.447 7.45281 44.8971 7.9029C45.3471 8.35298 45.6 8.96343 45.6 9.59995V14.4C45.6 15.0365 45.3471 15.6469 44.8971 16.097C44.447 16.5471 43.8365 16.8 43.2 16.8ZM43.2 36H4.8C4.16348 36 3.55303 35.7471 3.10295 35.297C2.65286 34.8469 2.4 34.2365 2.4 33.5999V28.7999C2.4 28.1634 2.65286 27.553 3.10295 27.1029C3.55303 26.6528 4.16348 26.4 4.8 26.4H43.2C43.8365 26.4 44.447 26.6528 44.8971 27.1029C45.3471 27.553 45.6 28.1634 45.6 28.7999V33.5999C45.6 34.2365 45.3471 34.8469 44.8971 35.297C44.447 35.7471 43.8365 36 43.2 36Z" fill="#E58E1A"/>
<path d="M9.6 7.1999V2.3999M9.6 35.9999V45.5999M38.4 7.1999V2.3999M9.6 26.3999V16.7999M38.4 26.3999V16.7999M38.4 35.9999V45.5999M33.6 45.5999H43.2M4.8 45.5999H14.4M43.2 16.7999H4.8C4.16348 16.7999 3.55303 16.547 3.10295 16.097C2.65286 15.6469 2.4 15.0364 2.4 14.3999V9.5999C2.4 8.96338 2.65286 8.35293 3.10295 7.90285C3.55303 7.45276 4.16348 7.1999 4.8 7.1999H43.2C43.8365 7.1999 44.447 7.45276 44.8971 7.90285C45.3471 8.35293 45.6 8.96338 45.6 9.5999V14.3999C45.6 15.0364 45.3471 15.6469 44.8971 16.097C44.447 16.547 43.8365 16.7999 43.2 16.7999ZM43.2 35.9999H4.8C4.16348 35.9999 3.55303 35.747 3.10295 35.297C2.65286 34.8469 2.4 34.2364 2.4 33.5999V28.7999C2.4 28.1634 2.65286 27.5529 3.10295 27.1028C3.55303 26.6528 4.16348 26.3999 4.8 26.3999H43.2C43.8365 26.3999 44.447 26.6528 44.8971 27.1028C45.3471 27.5529 45.6 28.1634 45.6 28.7999V33.5999C45.6 34.2364 45.3471 34.8469 44.8971 35.297C44.447 35.747 43.8365 35.9999 43.2 35.9999Z" stroke="black" stroke-width="2" stroke-linecap="round" stroke-linejoin="round"/>
</svg>
