<svg width="48" height="48" viewBox="0 0 48 48" fill="none" xmlns="http://www.w3.org/2000/svg">
<path fill-rule="evenodd" clip-rule="evenodd" d="M24 6C20.6862 6 18 8.6863 18 12V18V18.0046C18.5944 18 19.236 18 19.929 18H28.071C29.8746 18 31.3294 18 32.5134 18.0808C33.7308 18.1638 34.8074 18.339 35.8268 18.7612C38.2772 19.7761 40.2238 21.7228 41.2388 24.1732C41.661 25.1926 41.8362 26.2692 41.9192 27.4866C42 28.6706 42 30.1254 42 31.929V32.071C42 33.8746 42 35.3294 41.9192 36.5134C41.8362 37.7308 41.661 38.8074 41.2388 39.8268C40.2238 42.2772 38.2772 44.2238 35.8268 45.2388C34.8074 45.661 33.7308 45.8362 32.5134 45.9192C31.3294 46 29.8746 46 28.071 46H19.929C18.1254 46 16.6706 46 15.4866 45.9192C14.2691 45.8362 13.1926 45.661 12.1732 45.2388C9.72288 44.2238 7.77614 42.2772 6.7612 39.8268C6.33896 38.8074 6.16382 37.7308 6.08076 36.5134C5.99998 35.3294 5.99998 33.8746 6 32.071V31.929C5.99998 30.1254 5.99998 28.6706 6.08076 27.4866C6.16382 26.2692 6.33896 25.1926 6.7612 24.1732C7.77614 21.7228 9.72288 19.7761 12.1732 18.7612C12.7626 18.517 13.3712 18.3555 14.0151 18.2466C14.0051 18.1658 14 18.0835 14 18V12C14 6.47716 18.4772 2 24 2C29.5228 2 34 6.47716 34 12C34 13.1046 33.1046 14 32 14C30.8954 14 30 13.1046 30 12C30 8.6863 27.3138 6 24 6ZM15.7589 22.0714C14.7451 22.1406 14.1547 22.27 13.7039 22.4568C12.2337 23.0656 11.0657 24.2338 10.4567 25.7038C10.27 26.1546 10.1407 26.745 10.0715 27.7588C10.0011 28.7906 10 30.1088 10 32C10 33.8912 10.0011 35.2094 10.0715 36.2412C10.1407 37.255 10.27 37.8454 10.4567 38.2962C11.0657 39.7662 12.2337 40.9344 13.7039 41.5432C14.1547 41.73 14.7451 41.8594 15.7589 41.9286C16.7907 41.999 18.1089 42 20 42H28C29.8912 42 31.2094 41.999 32.2412 41.9286C33.255 41.8594 33.8454 41.73 34.2962 41.5432C35.7662 40.9344 36.9344 39.7662 37.5432 38.2962C37.73 37.8454 37.8594 37.255 37.9286 36.2412C37.999 35.2094 38 33.8912 38 32C38 30.1088 37.999 28.7906 37.9286 27.7588C37.8594 26.745 37.73 26.1546 37.5432 25.7038C36.9344 24.2338 35.7662 23.0656 34.2962 22.4568C33.8454 22.27 33.255 22.1406 32.2412 22.0714C31.2094 22.001 29.8912 22 28 22H20C18.1089 22 16.7907 22.001 15.7589 22.0714ZM24 28C25.1046 28 26 28.8954 26 30V34C26 35.1046 25.1046 36 24 36C22.8954 36 22 35.1046 22 34V30C22 28.8954 22.8954 28 24 28Z" fill="#5B1400"/>
</svg>
